<svg width="52" height="49" viewBox="0 0 52 49" fill="none" xmlns="http://www.w3.org/2000/svg">
<g opacity="0.27">
<path d="M41.3816 30.1603L51.9474 24.3995L41.3776 18.6348L44.7259 7.14734L43.163 7.60219L33.2324 10.4976L27.4737 0L26.6902 1.42666L21.7189 10.4896L10.1694 7.08923L13.5657 18.6348L3 24.3955L13.5717 30.1603L10.2215 41.6497L21.7169 38.2975L27.4757 48.7951L33.2304 38.3035L44.782 41.7018L41.3856 30.1563L41.3816 30.1603ZM48.2144 24.3995L40.8647 28.407L39.6905 24.4156L40.8627 20.3921L48.2144 24.3995ZM39.2597 29.2827L34.8074 31.7112L32.3508 36.1875L27.4877 34.7569L22.5886 36.1855L20.134 31.7112L15.6837 29.2847L17.1123 24.3835L15.6817 19.5184L20.134 17.0899L22.5906 12.6135L27.4537 14.0442L32.3528 12.6156L34.8074 17.0899L39.2577 19.5164L37.829 24.4176L39.2597 29.2827ZM42.097 9.77424L39.7686 17.7592L36.1218 15.7694L34.1101 12.1006L42.097 9.77225V9.77424ZM27.4717 3.71694L31.4731 11.0126L27.4557 12.1827L23.4702 11.0106L27.4717 3.71694ZM12.8043 9.73217L20.8373 12.0966L18.8215 15.7714L15.1687 17.7632L12.8063 9.73217H12.8043ZM6.72893 24.3995L14.0787 20.3921L15.2529 24.3835L14.0787 28.407L6.72693 24.3975L6.72893 24.3995ZM12.8464 39.0248L15.1747 31.0379L18.8215 33.0277L20.8333 36.6965L12.8464 39.0248ZM27.4717 45.0822L23.4702 37.7865L27.4877 36.6163L31.4731 37.7885L27.4737 45.0822H27.4717ZM36.1218 33.0257L39.7767 31.0339L42.139 39.0649L34.1061 36.7005L36.1218 33.0257Z" fill="#F6C90E"/>
<path d="M27.4726 17.6769C23.7597 17.6769 20.748 20.6866 20.748 24.3995C20.748 28.1124 23.7577 31.1241 27.4726 31.1241C31.1875 31.1241 34.1972 28.1124 34.1972 24.3995C34.1972 20.6866 31.1875 17.6769 27.4726 17.6769Z" fill="#F6C90E"/>
</g>
<path d="M38.3816 30.1603L48.9474 24.3995L38.3776 18.6348L41.7259 7.14734L40.163 7.60219L30.2324 10.4976L24.4737 0L23.6902 1.42666L18.7189 10.4896L7.16939 7.08923L10.5657 18.6348L0 24.3955L10.5717 30.1603L7.22149 41.6497L18.7169 38.2975L24.4757 48.7951L30.2304 38.3035L41.782 41.7018L38.3856 30.1563L38.3816 30.1603ZM45.2144 24.3995L37.8647 28.407L36.6905 24.4156L37.8627 20.3921L45.2144 24.3995ZM36.2597 29.2827L31.8074 31.7112L29.3508 36.1875L24.4877 34.7569L19.5886 36.1855L17.134 31.7112L12.6837 29.2847L14.1123 24.3835L12.6817 19.5184L17.134 17.0899L19.5906 12.6135L24.4537 14.0442L29.3528 12.6156L31.8074 17.0899L36.2577 19.5164L34.829 24.4176L36.2597 29.2827ZM39.097 9.77424L36.7686 17.7592L33.1218 15.7694L31.1101 12.1006L39.097 9.77225V9.77424ZM24.4717 3.71694L28.4731 11.0126L24.4557 12.1827L20.4702 11.0106L24.4717 3.71694ZM9.80429 9.73217L17.8373 12.0966L15.8215 15.7714L12.1687 17.7632L9.80629 9.73217H9.80429ZM3.72893 24.3995L11.0787 20.3921L12.2529 24.3835L11.0787 28.407L3.72693 24.3975L3.72893 24.3995ZM9.84636 39.0248L12.1747 31.0379L15.8215 33.0277L17.8333 36.6965L9.84636 39.0248ZM24.4717 45.0822L20.4702 37.7865L24.4877 36.6163L28.4731 37.7885L24.4737 45.0822H24.4717ZM33.1218 33.0257L36.7767 31.0339L39.139 39.0649L31.1061 36.7005L33.1218 33.0257Z" fill="#F6C90E"/>
<path d="M24.4726 17.6769C20.7597 17.6769 17.748 20.6866 17.748 24.3995C17.748 28.1124 20.7577 31.1241 24.4726 31.1241C28.1875 31.1241 31.1972 28.1124 31.1972 24.3995C31.1972 20.6866 28.1875 17.6769 24.4726 17.6769Z" fill="#F6C90E"/>
</svg>
