<svg width="37" height="27" viewBox="0 0 37 27" fill="none" xmlns="http://www.w3.org/2000/svg">
<path d="M2 10.125C2 9.26305 2.34241 8.4364 2.9519 7.8269C3.5614 7.21741 4.38805 6.875 5.25 6.875H31.25C32.112 6.875 32.9386 7.21741 33.5481 7.8269C34.1576 8.4364 34.5 9.26305 34.5 10.125V21.5C34.5 22.362 34.1576 23.1886 33.5481 23.7981C32.9386 24.4076 32.112 24.75 31.25 24.75H24.9645C24.4033 24.75 23.8516 24.6047 23.3632 24.3282C22.8748 24.0516 22.4664 23.6534 22.1776 23.1721L19.6426 18.9471C19.4982 18.7069 19.294 18.5081 19.05 18.3701C18.8059 18.232 18.5304 18.1595 18.25 18.1595C17.9696 18.1595 17.6941 18.232 17.45 18.3701C17.206 18.5081 17.0018 18.7069 16.8574 18.9471L14.3224 23.1721C14.0336 23.6534 13.6252 24.0516 13.1368 24.3282C12.6484 24.6047 12.0967 24.75 11.5355 24.75H5.25C4.38805 24.75 3.5614 24.4076 2.9519 23.7981C2.34241 23.1886 2 22.362 2 21.5V10.125ZM4.94612 4.89413C5.53955 4.0041 6.34347 3.27429 7.28657 2.76943C8.22966 2.26458 9.28278 2.00029 10.3525 2H26.1442C27.2142 2.00002 28.2677 2.26418 29.2111 2.76905C30.1545 3.27392 30.9587 4.00387 31.5523 4.89413L32.875 6.875H3.625L4.94612 4.89413Z" stroke="black" stroke-width="3.25" stroke-linecap="round" stroke-linejoin="round"/>
</svg>
