<svg width="597" height="523" viewBox="0 0 597 523" fill="none" xmlns="http://www.w3.org/2000/svg">
<g opacity="0.2">
<line x1="274.317" y1="0.0336914" x2="274.317" y2="523" stroke="#D7D7D7" stroke-width="1.2"/>
<line x1="110.957" y1="0.0336914" x2="110.957" y2="523" stroke="#D7D7D7" stroke-width="1.2"/>
<line x1="437.682" y1="0.0336914" x2="437.682" y2="523" stroke="#D7D7D7" stroke-width="1.2"/>
<line x1="2.04727" y1="0.0336914" x2="2.04727" y2="523" stroke="#D7D7D7" stroke-width="1.2"/>
<line x1="328.772" y1="0.0336914" x2="328.772" y2="523" stroke="#D7D7D7" stroke-width="1.2"/>
<line x1="165.413" y1="0.0336914" x2="165.413" y2="523" stroke="#D7D7D7" stroke-width="1.2"/>
<line x1="492.137" y1="0.0336914" x2="492.137" y2="523" stroke="#D7D7D7" stroke-width="1.2"/>
<line x1="56.5023" y1="0.0336914" x2="56.5023" y2="523" stroke="#D7D7D7" stroke-width="1.2"/>
<line x1="383.227" y1="0.0336914" x2="383.227" y2="523" stroke="#D7D7D7" stroke-width="1.2"/>
<line x1="219.868" y1="0.0336914" x2="219.868" y2="523" stroke="#D7D7D7" stroke-width="1.2"/>
<line x1="546.592" y1="0.0336914" x2="546.592" y2="523" stroke="#D7D7D7" stroke-width="1.2"/>
</g>
<g opacity="0.2">
<line x1="597" y1="42.6" x2="-73.9559" y2="42.6" stroke="#D7D7D7" stroke-width="1.2"/>
<line x1="596.955" y1="372.6" x2="-74.0008" y2="372.6" stroke="#D7D7D7" stroke-width="1.2"/>
<line x1="596.955" y1="207.6" x2="-74.0008" y2="207.6" stroke="#D7D7D7" stroke-width="1.2"/>
<line x1="596.955" y1="97.6" x2="-74.0008" y2="97.6" stroke="#D7D7D7" stroke-width="1.2"/>
<line x1="596.955" y1="427.6" x2="-74.0008" y2="427.6" stroke="#D7D7D7" stroke-width="1.2"/>
<line x1="596.955" y1="262.6" x2="-74.0008" y2="262.6" stroke="#D7D7D7" stroke-width="1.2"/>
<line x1="596.955" y1="152.6" x2="-74.0008" y2="152.6" stroke="#D7D7D7" stroke-width="1.2"/>
<line x1="596.955" y1="482.6" x2="-74.0008" y2="482.6" stroke="#D7D7D7" stroke-width="1.2"/>
<line x1="596.955" y1="317.6" x2="-74.0008" y2="317.6" stroke="#D7D7D7" stroke-width="1.2"/>
</g>
</svg>
