<svg width="244" height="376" viewBox="0 0 244 376" fill="none" xmlns="http://www.w3.org/2000/svg">
<g opacity="0.2">
<line y1="363.816" x2="292.981" y2="363.816" stroke="#222222" stroke-width="0.672275"/>
<line x1="0.0195312" y1="180.774" x2="293.001" y2="180.774" stroke="#222222" stroke-width="0.672275"/>
<line x1="0.0195312" y1="272.294" x2="293.001" y2="272.294" stroke="#222222" stroke-width="0.672275"/>
<line x1="0.0195312" y1="89.2535" x2="293.001" y2="89.2535" stroke="#222222" stroke-width="0.672275"/>
<line x1="0.0195312" y1="333.308" x2="293.001" y2="333.308" stroke="#222222" stroke-width="0.672275"/>
<line x1="0.0195312" y1="150.268" x2="293.001" y2="150.268" stroke="#222222" stroke-width="0.672275"/>
<line x1="0.0195312" y1="241.787" x2="293.001" y2="241.787" stroke="#222222" stroke-width="0.672275"/>
<line x1="0.0195312" y1="58.7469" x2="293.001" y2="58.7469" stroke="#222222" stroke-width="0.672275"/>
<line x1="0.0195312" y1="302.802" x2="293.001" y2="302.802" stroke="#222222" stroke-width="0.672275"/>
<line x1="0.0195312" y1="119.76" x2="293.001" y2="119.76" stroke="#222222" stroke-width="0.672275"/>
<line x1="0.0195312" y1="211.279" x2="293.001" y2="211.279" stroke="#222222" stroke-width="0.672275"/>
<line x1="0.0195312" y1="28.2378" x2="293.001" y2="28.2378" stroke="#222222" stroke-width="0.672275"/>
</g>
<g opacity="0.2">
<line x1="23.8654" y1="-0.000488281" x2="23.8654" y2="375.889" stroke="#222222" stroke-width="0.672275"/>
<line x1="208.742" y1="0.0236816" x2="208.742" y2="375.913" stroke="#222222" stroke-width="0.672275"/>
<line x1="116.305" y1="0.0236816" x2="116.305" y2="375.913" stroke="#222222" stroke-width="0.672275"/>
<line x1="54.6799" y1="0.0236816" x2="54.6799" y2="375.913" stroke="#222222" stroke-width="0.672275"/>
<line x1="239.555" y1="0.0236816" x2="239.555" y2="375.913" stroke="#222222" stroke-width="0.672275"/>
<line x1="147.117" y1="0.0236816" x2="147.117" y2="375.913" stroke="#222222" stroke-width="0.672275"/>
<line x1="85.4924" y1="0.0236816" x2="85.4924" y2="375.913" stroke="#222222" stroke-width="0.672275"/>
<line x1="177.93" y1="0.0236816" x2="177.93" y2="375.913" stroke="#222222" stroke-width="0.672275"/>
</g>
</svg>
