<svg width="48" height="46" viewBox="0 0 48 46" fill="none" xmlns="http://www.w3.org/2000/svg">
<path d="M8.03998 39.4712C6.98039 37.8309 7.27875 36.3164 8.15945 34.9942C8.94109 33.8215 9.91689 32.713 10.9817 31.8011C13.1559 29.9424 15.5457 28.3687 18.3441 27.0872C18.7186 27.6581 19.093 28.229 19.4675 28.7999C20.4813 30.4184 21.3611 32.1417 22.5306 33.6096C24.6132 36.199 27.4536 37.2816 30.7731 37.0898C34.1661 36.8909 36.5819 34.6417 36.927 31.2264C37.488 25.5836 34.4647 21.9016 29.797 20.7652C28.4236 20.4356 26.9654 20.4027 25.5362 20.3975C24.3506 20.3817 23.1756 20.6096 21.7378 20.7407C21.6673 20.0616 21.4438 19.3799 21.5904 18.7758C21.914 17.3855 22.1616 15.889 22.8866 14.7174C26.956 8.13047 32.7389 4.11196 40.6515 3.61765C42.4186 3.50259 44.212 3.56849 45.8585 4.50503C46.1454 4.66937 46.8211 4.42887 47.1277 4.16748C47.6348 3.72056 47.591 2.95585 47.1355 2.58507C46.3173 1.94373 45.4025 1.29868 44.4319 0.978002C40.4073 -0.330202 36.3653 0.0235757 32.5004 1.57042C28.568 3.14131 25.1918 5.58004 22.3347 8.72849C19.3278 12.0444 17.5785 15.8454 17.5964 20.3876C17.597 20.9774 17.5468 21.5853 17.5133 22.4536C13.1225 25.1964 8.30016 27.6359 4.70093 32.2285C4.17386 31.1219 3.82262 30.2953 3.40978 29.5097C3.04389 28.8025 2.40857 28.5147 1.62696 28.5645C0.885139 28.6192 0.153326 29.4506 0.159609 30.3239C0.17076 31.1573 0.204832 32.0016 0.396929 32.8087C1.19881 36.2916 2.04048 39.7794 2.88216 43.2672C2.96862 43.6171 3.07195 43.961 3.22598 44.2868C3.79514 45.5116 5.00303 46.0714 6.18692 45.4406C9.65412 43.5786 13.0683 41.6212 16.4946 39.6975C16.7975 39.5326 17.1897 39.2979 17.2974 39.0121C17.491 38.4865 17.6714 37.8703 17.5308 37.3684C17.4564 37.0524 16.791 36.6801 16.4002 36.705C15.4594 36.7354 14.498 36.8682 13.6196 37.1808C12.3864 37.6197 11.2255 38.2613 10.0224 38.7847C9.40341 39.024 8.73256 39.2247 8.03998 39.4712ZM22.5202 25.5057C25.1846 24.3291 27.3015 24.1275 29.3102 24.7448C32.0267 25.5861 33.5209 27.9661 33.1644 30.8146C32.9843 32.2871 32.1004 33.1726 30.6179 33.3386C28.5697 33.5728 26.8542 32.8702 25.4966 31.355C24.0293 29.7456 23.0893 27.8535 22.5202 25.5057Z" fill="black"/>
</svg>
