<svg width="29" height="29" viewBox="0 0 29 29" fill="none" xmlns="http://www.w3.org/2000/svg">
<path d="M14.5007 2.41675H10.4733C9.405 2.41675 8.38047 2.84112 7.62508 3.59652C6.86969 4.35191 6.44531 5.37644 6.44531 6.44473C6.44531 7.51301 6.86969 8.53755 7.62508 9.29294C8.38047 10.0483 9.405 10.4727 10.4733 10.4727H14.5007V2.41675Z" stroke="black" stroke-width="1.5"/>
<path d="M14.5007 10.4714H10.4733C9.405 10.4714 8.38047 10.8958 7.62508 11.6512C6.86969 12.4066 6.44531 13.4311 6.44531 14.4994C6.44531 15.5677 6.86969 16.5922 7.62508 17.3476C8.38047 18.103 9.405 18.5274 10.4733 18.5274H14.5007V10.4714Z" stroke="black" stroke-width="1.5"/>
<path d="M22.556 14.5001C22.556 15.5684 22.1316 16.593 21.3763 17.3484C20.6209 18.1038 19.5963 18.5281 18.528 18.5281C17.4598 18.5281 16.4352 18.1038 15.6798 17.3484C14.9244 16.593 14.5001 15.5684 14.5001 14.5001C14.5001 13.4319 14.9244 12.4073 15.6798 11.6519C16.4352 10.8965 17.4598 10.4722 18.528 10.4722C19.5963 10.4722 20.6209 10.8965 21.3763 11.6519C22.1316 12.4073 22.556 13.4319 22.556 14.5001ZM10.4727 18.5287H14.5001V22.5561C14.4998 23.3526 14.2634 24.1311 13.8207 24.7933C13.3781 25.4554 12.749 25.9714 12.0131 26.2761C11.2771 26.5807 10.4674 26.6603 9.68625 26.5047C8.90509 26.3492 8.1876 25.9655 7.62448 25.4023C7.06136 24.839 6.67791 24.1214 6.52261 23.3402C6.36731 22.559 6.44714 21.7492 6.752 21.0134C7.05685 20.2776 7.57305 19.6487 8.23532 19.2062C8.8976 18.7637 9.6762 18.5287 10.4727 18.5287Z" stroke="black" stroke-width="1.5"/>
<path d="M14.5 2.41675H18.5274C19.5957 2.41675 20.6202 2.84112 21.3756 3.59652C22.131 4.35191 22.5554 5.37644 22.5554 6.44473C22.5554 7.51301 22.131 8.53755 21.3756 9.29294C20.6202 10.0483 19.5957 10.4727 18.5274 10.4727H14.5V2.41675Z" stroke="black" stroke-width="1.5"/>
</svg>
