<svg width="70" height="80" viewBox="0 0 70 80" fill="none" xmlns="http://www.w3.org/2000/svg">
<path fill-rule="evenodd" clip-rule="evenodd" d="M22.1237 8.82022C21.9431 9.02587 21.5756 9.34062 21.3069 9.52857C21.0382 9.71652 20.6622 10.0552 20.4809 10.301C20.2995 10.5469 20.0216 10.799 19.8756 10.8686C19.7134 10.946 19.6147 11.0728 19.6456 11.1376C19.6843 11.2187 19.4536 11.528 19.1347 11.8195C18.8074 12.135 18.4709 12.5146 18.3876 12.6738C18.312 12.8492 17.9585 13.2767 17.6143 13.6401C17.2538 14.0112 16.9984 14.3522 17.0371 14.4332C17.0758 14.5143 16.6791 15.1018 16.1528 15.7512C15.6341 16.4168 15.2206 17.0522 15.2338 17.2052C15.2393 17.3419 15.1723 17.4934 15.0587 17.5475C14.9614 17.594 14.8527 17.8251 14.8243 18.0576C14.8036 18.3064 14.7041 18.4734 14.5998 18.4634C14.5033 18.4697 14.3883 18.6042 14.3366 18.7881C14.285 18.972 14.1932 19.1552 14.1284 19.1862C13.9824 19.2558 13.6562 19.9491 13.2098 21.0581C13.0741 21.4414 12.8751 21.7753 12.794 21.814C12.7291 21.8449 12.655 21.94 12.6613 22.0366C12.676 22.1092 12.4663 22.5876 12.2079 23.0892C11.6155 24.2678 11.2248 25.41 11.3508 25.549C11.398 25.6061 11.3471 25.7499 11.2159 25.8921C10.9944 26.1372 10.1495 28.3722 10.2269 28.5343C10.2501 28.583 10.0119 29.2939 9.71518 30.1324C9.30895 31.2422 9.20203 31.8109 9.32216 32.2712C9.43528 32.6752 9.38844 33.036 9.19087 33.2896C9.03421 33.5037 8.97414 33.7116 9.03753 33.761C9.10092 33.8104 9.12891 34.0359 9.07656 34.26C9.02421 34.4841 9.04225 34.814 9.1119 34.9599C9.18929 35.1221 9.18633 35.2828 9.08902 35.3292C9.00794 35.3679 8.9965 35.5526 9.08163 35.731C9.15902 35.8932 9.16232 36.1504 9.06354 36.2772C8.82432 36.6104 9.23073 38.5469 9.84137 39.8682C10.4668 41.2622 11.6354 42.835 12.2019 43.0624C12.4492 43.1634 12.6386 43.3518 12.6441 43.4885C12.6736 43.6337 12.9032 43.8228 13.1667 43.9161C13.4542 44.0178 13.6374 44.1096 13.5887 44.1328C13.5401 44.156 13.7063 44.2957 13.9606 44.4531C14.4136 44.7347 14.9041 44.7197 14.5238 44.4233C14.4125 44.357 14.6126 44.4008 14.9712 44.5682C15.6884 44.9029 15.7364 44.9198 16.6729 45.13C17.0569 45.2255 17.6356 45.2281 17.9507 45.1374C18.2658 45.0468 18.7734 44.9838 19.0948 44.9897C19.6248 45.0155 19.6959 45.0812 20.0194 45.8426C20.2199 46.3045 20.2929 46.7077 20.1956 46.7541C20.0983 46.8006 20.1296 47.2834 20.2482 47.8241C20.3669 48.3648 20.4136 48.8801 20.3558 48.9674C20.3056 49.071 20.2949 49.2154 20.3336 49.2965C20.3801 49.3938 20.4689 49.3714 20.5515 49.2523C20.6425 49.1093 20.6974 49.1827 20.7317 49.5048C20.7847 50.1166 22.0285 52.8482 22.2069 52.7631C22.288 52.7244 22.4689 52.9367 22.616 53.2448C22.763 53.5529 22.9996 53.7984 23.1286 53.7767C23.3055 53.7719 23.3048 53.8121 23.1426 53.8895C23.0044 53.9753 23.0191 54.0479 23.1783 54.1312C23.3298 54.1983 23.5749 54.4199 23.7319 54.6237C24.1248 55.1132 25.257 55.6082 26.4028 55.7981C26.9159 55.8719 27.2613 55.8863 27.1499 55.8199C27.0309 55.7373 27.0246 55.6408 27.1057 55.6021C27.203 55.5557 27.3151 55.5818 27.3615 55.6791C27.4002 55.7602 27.6567 55.7971 27.9394 55.7219C28.2136 55.6707 28.6401 55.6464 28.8966 55.6833C29.3857 55.7485 30.8563 55.3255 32.3229 54.6854C32.6472 54.5306 32.9694 54.4964 33.0081 54.5774C33.0545 54.6747 33.0379 55.1406 32.9804 55.6459C32.7908 57.2098 32.7954 60.891 32.9933 61.0554C33.1039 61.162 33.1094 61.2987 33.0191 61.4015C32.9373 61.4804 32.9328 61.7215 33.0249 61.9562C33.1093 62.1748 33.1993 62.5301 33.2195 62.7394C33.2398 62.9488 33.2873 63.4239 33.3285 63.8024C33.3536 64.1887 33.4358 64.5278 33.4999 64.537C33.5555 64.5702 33.6314 64.8127 33.651 65.0622C33.7173 65.827 34.7701 68.4506 35.0731 68.5847C35.2168 68.6356 35.4132 68.8803 35.5216 69.1074C35.8768 69.8936 36.7886 71.0115 37.5655 71.5965C38.8488 72.6167 41.1129 73.1889 42.4777 72.8363C42.6314 72.7828 42.9134 72.7478 43.0664 72.7346C43.7748 72.6753 45.4013 72.0783 46.1495 71.6018C46.5889 71.3125 47.3271 70.9403 47.7882 70.78C48.274 70.588 48.542 70.4402 48.4469 70.3661C48.3596 70.3082 48.5556 70.135 48.88 69.9802C49.1966 69.8092 49.6275 69.5439 49.8236 69.3707C50.0197 69.1975 50.3378 68.9461 50.5416 68.7891C50.7454 68.6321 51.2349 68.2393 51.6109 67.9006C52.003 67.5541 52.5087 67.1535 52.7288 66.9888C53.5025 66.4404 53.5095 65.6207 52.7502 65.8237C52.5564 65.8764 52.493 65.827 52.5678 65.6918C52.6581 65.589 52.9555 65.5864 53.2832 65.6889L53.8582 65.8924L54.5699 65.2142C54.9628 64.8276 55.2994 64.448 55.3333 64.3522C55.3587 64.2803 55.5625 64.1233 55.7571 64.0305C56.4383 63.7054 57.5024 62.222 57.1593 62.0871C57.0712 62.0694 57.1291 61.982 57.2913 61.9046C57.4372 61.835 57.5493 61.8612 57.5471 61.9817C57.501 62.3023 58.1102 61.9519 58.3355 61.5059C58.4357 61.2988 58.6897 61.0382 58.8681 60.9531C59.2086 60.7906 59.7737 60.2223 60.6119 59.225C60.8334 58.9799 61.1615 58.6242 61.3977 58.4517C61.61 58.2708 61.7505 58.0644 61.7195 57.9995C61.5647 57.6752 61.1991 57.4514 60.9721 57.5598C60.8423 57.6217 60.755 57.5638 60.765 57.4595C60.7672 57.339 60.8984 57.1967 61.0443 57.1271C61.1903 57.0574 61.3794 56.8278 61.4719 56.6045C61.5899 56.3093 61.6872 56.2628 61.8541 56.3624C61.9732 56.4449 61.9802 56.5013 61.8519 56.4829C61.7237 56.4644 61.6249 56.5912 61.6459 56.7604C61.6927 57.2757 61.8729 57.5281 62.1324 57.4043C62.2621 57.3424 62.3214 57.1747 62.2595 57.045C62.1976 56.9152 62.2245 56.763 62.3218 56.7166C62.4029 56.6779 62.474 56.7435 62.4633 56.888C62.4526 57.0325 62.4766 57.0409 62.5592 56.9219C62.6417 56.8028 62.6455 56.602 62.5835 56.4722C62.5216 56.3425 62.6212 56.1755 62.7995 56.0904C63.0915 55.9511 63.0845 55.8947 62.8069 55.6887C62.3787 55.3753 62.7038 55.1804 63.2216 55.4311C63.564 55.6061 63.5725 55.5822 63.3126 55.2881C63.0845 55.0186 63.1099 54.9468 63.4505 54.7842C63.6776 54.6759 63.849 54.5344 63.8103 54.4533C63.7793 54.3884 63.9452 54.1102 64.1829 53.8573C64.8073 53.1213 65.3621 52.2394 65.2346 52.1808C65.1704 52.1715 64.7672 52.2445 64.3555 52.3414C62.8215 52.715 61.4684 53.301 60.4423 54.0296C59.8562 54.4287 59.3513 54.7891 59.3026 54.8124C59.2625 54.8116 59.0254 55.0243 58.78 55.2609C58.5267 55.4813 58.0936 55.8671 57.8165 56.079C57.547 56.3072 56.4206 57.2429 55.3267 58.1632C50.9098 61.8836 46.8469 64.7184 44.5956 65.6334C43.292 66.156 41.818 66.3217 40.9873 66.0412C40.2446 65.7784 39.4346 65.2491 39.6454 65.1484C39.7589 65.0943 39.721 64.973 39.5547 64.8333C39.4202 64.7183 39.1696 64.36 39.0226 64.0519C38.8523 63.6951 38.5995 63.4574 38.3754 63.405C38.159 63.3689 37.9365 63.2362 37.89 63.1389C37.8281 63.0092 37.8767 62.986 38.0437 63.0855C38.2184 63.2012 38.2601 63.1216 38.1617 62.7903C38.102 62.54 37.9999 62.4095 37.9582 62.4891C37.9004 62.5765 37.7968 62.5263 37.7349 62.3966C37.6575 62.2344 37.7316 62.1393 37.9571 62.1113C38.2468 62.0926 38.2391 62.0763 37.9207 61.9097C37.61 61.7593 37.5945 61.7269 37.8123 61.6827C37.9576 61.6532 38.0007 61.4932 37.9078 61.2986C37.8227 61.1202 37.77 60.9264 37.7954 60.8545C37.8371 60.7749 37.798 60.2758 37.7118 59.7197C37.6061 58.914 37.5217 58.6954 37.3131 58.6755C37.1207 58.6478 37.106 58.5752 37.2781 58.3935C37.4008 58.2752 37.4377 58.0187 37.3603 57.8565C37.2829 57.6943 37.2811 57.3567 37.3744 57.0932C37.4761 56.8057 37.4559 56.5964 37.2734 56.4644C36.9719 56.2499 36.878 55.6775 37.1507 55.7066C37.2551 55.7166 37.258 55.5559 37.1574 55.3451C37.0568 55.1342 37.0141 54.8361 37.0734 54.6684C37.1328 54.5007 37.1265 54.4041 37.0454 54.4428C36.9805 54.4738 37.0498 54.2018 37.2172 53.8431C37.3845 53.4845 37.4553 53.1322 37.3518 53.0821C37.2644 53.0242 37.2913 52.872 37.3979 52.7614C37.5206 52.6431 37.5313 52.4986 37.4362 52.4245C37.2298 52.2841 37.5774 51.3019 37.9943 50.9237C38.158 50.766 38.2583 50.5589 38.2196 50.4778C38.1731 50.3805 38.2465 50.3256 38.3508 50.3355C38.479 50.354 38.6257 50.2441 38.7006 50.1089C38.7754 49.9736 38.9969 49.7285 39.2092 49.5476C39.7149 49.147 39.9276 48.5079 39.6508 48.2617C39.5325 48.1389 39.5016 48.074 39.5897 48.0917C39.6855 48.1257 39.8562 48.0243 39.9796 47.8658C40.1363 47.6517 40.29 47.5983 40.5535 47.6915C40.8889 47.8102 40.9298 47.7708 40.9634 47.257C40.9855 46.9279 41.0279 46.8081 41.0651 46.9695C41.0931 47.1951 41.1812 47.2128 41.4584 47.0009L41.8329 46.7425L41.255 46.6998C40.548 46.6787 39.2661 47.3303 39.2425 47.7397C39.2395 47.9004 39.14 48.0674 39.0265 48.1216C38.54 48.3537 39.2853 47.1618 40.2016 46.2865C40.7582 45.7422 41.1518 45.3154 41.0545 45.3618C40.9735 45.4005 40.9594 45.2877 41.0103 45.144C41.0951 44.9044 41.1762 44.8657 41.3826 45.0062C41.732 45.2377 41.5779 45.7492 41.1507 45.8137C40.9413 45.834 40.8271 45.9283 40.8735 46.0256C40.9122 46.1067 41.1201 46.1668 41.3217 46.1303C41.5233 46.0938 41.7467 46.1864 41.8163 46.3323C41.9169 46.5432 41.9656 46.5199 42.0828 46.2649C42.2085 45.9859 42.1775 45.921 41.9612 45.8849C41.7371 45.8325 41.7139 45.7839 41.8451 45.6416C41.9431 45.555 42.0681 45.3162 42.1197 45.1323C42.2377 44.8371 42.3025 44.8061 42.614 44.9163C42.8775 45.0096 43.0552 44.9646 43.3014 44.6879C43.7846 44.1984 43.5889 43.9135 43.0191 44.3049C42.6531 44.5393 42.5805 44.554 42.6413 44.306C42.6844 44.146 42.624 43.9359 42.5212 43.8456C42.4106 43.7391 42.4313 43.4903 42.5717 43.2839C42.8448 42.8549 43.1423 42.8524 42.9897 43.2836C42.837 43.7148 42.9716 43.8298 43.2819 43.5622C43.4371 43.4285 43.5985 43.3912 43.645 43.4885C43.823 43.8615 44.2708 43.5483 44.4835 42.9092C44.6708 42.342 44.6483 42.2532 44.4212 42.3615C44.2753 42.4312 44.2089 42.5425 44.2963 42.6003C44.3759 42.642 44.2996 42.8576 44.1352 43.0555C43.8558 43.3879 43.8156 43.3872 43.6933 43.0474C43.6089 42.8288 43.4821 42.73 43.3841 42.8166C43.042 43.0595 43.0487 42.6979 43.3775 42.3021C43.8213 41.7718 43.9587 41.7261 43.7088 42.2037C43.4589 42.6814 43.7423 42.566 44.1305 42.0025C44.3203 41.7327 44.3225 41.6122 44.1766 41.6818C44.0229 41.7353 44.0405 41.6472 44.2289 41.4578C44.3848 41.2838 44.4851 41.0767 44.4464 40.9956C44.4077 40.9145 44.5791 40.773 44.8378 40.6893C45.0888 40.5895 45.366 40.3776 45.4493 40.2183C45.5665 39.9633 45.5982 39.988 45.6727 40.3109C45.7084 40.5526 45.8182 40.6993 45.8993 40.6606C45.9804 40.6219 45.9911 40.4775 45.9137 40.3153C45.8441 40.1693 45.8618 40.0812 45.9336 40.1067C46.2134 40.1922 46.5466 39.5553 46.3918 39.231C46.3067 39.0526 46.1722 38.9376 46.0749 38.984C45.9938 39.0227 46.0078 39.1355 46.1183 39.242C46.2289 39.3486 46.2661 39.51 46.1998 39.6213C46.1172 39.7403 45.9982 39.6578 45.8821 39.4145C45.6576 38.9442 46.2194 38.1186 46.6005 38.3748C46.8308 38.5237 46.8323 38.4434 46.641 37.9174C46.5953 37.7799 46.6462 37.6362 46.7752 37.6145C46.8965 37.5765 46.9157 37.4081 46.8305 37.2297C46.7454 37.0513 46.7893 36.8511 46.919 36.7892C47.065 36.7196 47.1568 36.5364 47.1435 36.3835C47.1465 36.2228 47.2707 36.0241 47.4329 35.9467C47.6113 35.8616 47.6868 35.6862 47.6172 35.5402C47.5475 35.3942 47.6238 35.1786 47.779 35.0448C47.9342 34.9111 48.0499 34.7364 48.0112 34.6553C47.9887 34.5665 47.943 34.429 47.9206 34.3402C47.8292 34.0652 47.9866 33.8109 48.0949 34.0379C48.2884 34.4434 48.4808 33.5949 48.3228 33.0133C48.2476 32.7306 48.2133 32.4085 48.2719 32.281C48.4684 31.6496 47.2857 30.8402 46.6208 31.1575C46.5073 31.2116 46.2987 31.1917 46.1472 31.1246C45.8203 30.982 44.3305 31.5734 44.4466 31.8167C44.493 31.914 44.4197 31.9689 44.3154 31.959C44.1871 31.9405 44.0404 32.0504 43.9656 32.1856C43.8907 32.3209 43.6283 32.6054 43.3836 32.8018C43.1149 32.9898 42.9335 33.2356 42.9722 33.3167C43.0109 33.3978 42.9121 33.5246 42.7499 33.602C42.5878 33.6793 42.4164 33.8209 42.3825 33.9167C42.3563 34.0287 42.266 34.1316 42.2173 34.1548C41.7548 34.3954 40.2509 36.6263 39.1601 38.6799C38.894 39.1653 38.4966 39.793 38.2589 40.0458C38.0289 40.3148 37.9194 40.5861 38.0068 40.6439C38.0941 40.7018 38.0996 40.8386 38.0333 40.9499C37.9422 41.0929 37.9105 41.0682 37.922 40.8835C37.9411 40.7151 37.8855 40.6819 37.7627 40.8002C37.6562 40.9108 37.6525 41.1116 37.7384 41.2499C37.8158 41.412 37.7465 41.684 37.5821 41.8819C37.4177 42.0799 37.3089 42.3109 37.3399 42.3758C37.3709 42.4407 37.212 42.7753 36.9967 43.117C36.7815 43.4586 36.6458 43.8419 36.7077 43.9717C36.7696 44.1014 36.6701 44.2684 36.4917 44.3535C36.3133 44.4386 36.1983 44.5732 36.2293 44.638C36.268 44.7191 36.073 45.2701 35.8131 45.8521C35.3689 46.8406 35.213 47.0145 34.1396 47.686C33.5049 48.1083 32.878 48.5469 32.7869 48.6899C32.6882 48.8167 32.4441 48.9729 32.2503 49.0256C32.0487 49.0621 31.4254 49.2998 30.8747 49.5227C30.2916 49.7612 29.4041 49.9458 28.793 49.9586C28.2059 49.98 27.5377 50.04 27.2797 50.0835C27.0055 50.1347 26.6461 50.0075 26.3848 49.7937C26.1397 49.5722 25.7564 49.4366 25.547 49.4568C25.3454 49.4933 25.2017 49.4424 25.2518 49.3389C25.4262 49.0366 25.2544 48.7602 24.978 48.9319C24.6127 49.1261 24.2358 48.211 24.5244 47.8144C24.6733 47.584 24.6663 47.5277 24.4337 47.4993C24.2089 47.4871 24.147 47.3574 24.0847 46.8097C24.0435 46.4311 23.9536 46.0758 23.85 46.0257C23.7627 45.9678 23.7409 45.8388 23.8073 45.7275C23.8736 45.6162 23.8279 45.4787 23.7166 45.4124C23.5976 45.3298 23.6702 45.3151 23.8943 45.3674C24.2304 45.446 24.2551 45.4143 24.1468 45.1872C24.0771 45.0412 23.9581 44.9587 23.8608 45.0051C23.6013 45.1289 23.4889 44.6848 23.643 44.1732C23.7285 43.8935 23.7329 43.6525 23.6448 43.6348C23.5652 43.5931 23.6401 43.4578 23.8037 43.3001C23.9751 43.1586 24.0831 42.9677 24.0444 42.8866C24.0057 42.8055 24.1524 42.6957 24.3865 42.6437C24.6043 42.5995 24.6692 42.5685 24.5486 42.5663C24.1948 42.5759 24.1267 42.3496 24.4186 42.2103C24.5483 42.1484 24.6928 42.1591 24.7315 42.2401C24.8166 42.4185 25.263 42.1856 25.2836 41.9368C25.2936 41.8325 25.2294 41.8233 25.1229 41.9339C25.0164 42.0445 24.8804 42.0098 24.8107 41.8638C24.7488 41.7341 24.7595 41.5896 24.8406 41.5509C24.9055 41.52 24.9394 41.4241 24.9007 41.3431C24.8156 41.1647 24.245 41.5962 24.0283 42.0182C23.8948 42.281 23.8871 42.2648 23.9586 41.8723C24.1356 40.9914 24.1934 40.9041 24.5366 41.039C24.8078 41.1485 24.8804 41.1337 24.9088 40.9011C24.921 40.6763 25.074 40.6631 25.5454 40.8164C25.9689 40.9528 26.1218 40.9395 26.0282 40.7851C25.7072 40.3211 25.7349 40.1287 26.0994 39.9746C26.3372 39.8611 26.3522 39.9203 26.1443 40.1523C25.7345 40.5868 26.1487 40.7873 26.8059 40.4538C27.9983 39.8649 28.0886 39.7621 27.9931 39.27C27.9497 39.012 28.0005 38.8683 28.0794 38.9501C28.1822 39.0404 28.3422 39.0836 28.4395 39.0371C28.7476 38.8901 28.0754 38.733 27.4071 38.7931C26.956 38.8491 26.8764 38.8074 27.1119 38.6751C27.2826 38.5738 27.5752 38.3943 27.7783 38.2775C28.0223 38.1212 28.1985 38.1566 28.3949 38.4013C28.6702 38.7279 29.0395 38.7508 28.8848 38.4264C28.8383 38.3291 28.9533 38.1946 29.1317 38.1095C29.3101 38.0243 29.4019 37.8412 29.34 37.7114C29.2084 37.4357 29.5907 37.1936 29.8689 37.3595C30.1549 37.5416 30.4159 37.3374 30.1708 37.1159C29.918 36.8781 30.3061 36.3146 30.741 36.2664C30.9983 36.2631 31.0377 36.304 30.9135 36.5026C30.814 36.6696 30.8866 36.6548 31.1313 36.4584C31.5397 36.1042 31.7649 35.6583 31.4568 35.8053C31.3433 35.8595 31.2235 35.8171 31.1848 35.736C31.1306 35.6225 31.2279 35.5761 31.469 35.5805C31.71 35.5849 31.954 35.4287 32.2342 35.0561C32.7111 34.4701 32.751 34.0528 32.3393 34.1498C32.1454 34.2024 32.1631 34.1144 32.3854 33.8291C32.6732 33.4727 32.6972 33.4812 32.7469 33.8358C32.7981 34.11 32.8615 34.1594 32.9843 34.0411C33.0908 33.9305 33.0945 33.7296 33.0086 33.5914C32.9235 33.413 32.9574 33.3172 33.1266 33.2962C33.3035 33.2914 33.3382 33.1554 33.2383 32.9044C33.1454 32.7098 33.1631 32.6217 33.2582 32.6958C33.3448 32.7938 33.5534 32.8138 33.6832 32.7519C33.8778 32.659 33.8708 32.6026 33.6397 32.4938C33.4565 32.4021 33.3784 32.2801 33.4525 32.185C33.5103 32.0976 33.6471 32.0921 33.7259 32.1739C33.8365 32.2805 33.8619 32.2086 33.7768 32.0302C33.6769 31.7792 33.7179 31.7398 33.9899 31.8091C34.2619 31.8784 34.451 31.6488 35.0448 30.3898C35.897 28.6292 38.5818 21.1956 38.458 20.9361C38.4115 20.8388 38.514 20.5112 38.6969 20.185C38.9306 19.7151 38.9412 19.5706 38.7102 19.4619C38.4791 19.3531 38.5038 19.3214 38.7695 19.2942C38.9866 19.2901 39.0522 19.219 38.9486 19.1689C38.8536 19.0948 38.7924 18.9249 38.8278 18.7487C38.8407 18.4837 38.8731 18.4682 38.9737 18.679C39.0828 18.8659 39.1075 18.8342 39.1289 18.5453C39.1404 18.3606 39.0722 18.1343 38.9771 18.0602C38.8735 18.0101 38.8308 17.7119 38.8684 17.4152C38.906 17.1185 38.8478 16.7879 38.745 16.6976C38.6344 16.5911 38.5972 16.4296 38.6551 16.3423C38.8619 16.0246 38.288 15.3228 37.5306 14.9874C36.6697 14.6018 35.3185 14.6492 34.3941 15.0904C33.2751 15.6243 31.8722 16.7318 31.9961 16.9913C32.0735 17.1535 31.9754 17.2401 31.6525 17.3145C31.3945 17.358 31.1019 17.5375 30.9946 17.6882C30.4999 18.3623 29.5405 19.3975 29.3459 19.4904C29.2161 19.5523 29.0094 19.87 28.8744 20.2132C28.7395 20.5563 28.4517 20.9127 28.257 21.0055C28.0462 21.1061 27.6348 21.621 27.3602 22.1304C27.0694 22.6475 26.7045 23.2596 26.5239 23.4653C26.351 23.6871 26.2021 23.9175 26.1767 23.9894C26.1512 24.0612 25.8689 24.5544 25.5541 25.063C25.2231 25.5793 25.0133 26.0577 25.0929 26.0994C25.1725 26.141 25.0468 26.42 24.8168 26.6891C24.6108 26.9666 24.394 27.3886 24.3656 27.6211C24.345 27.8699 24.1876 28.1242 24.0254 28.2016C23.8632 28.279 23.7313 28.4614 23.7368 28.5982C23.7501 28.7511 23.474 29.3408 23.126 29.9051C22.7858 30.4856 22.5598 30.9717 22.6317 30.9971C22.8473 31.0735 22.7374 31.8028 22.4942 31.9189C22.3644 31.9808 22.3058 32.1084 22.3924 32.2064C22.455 32.296 22.3625 32.5193 22.1664 32.6925C21.9704 32.8658 21.88 32.9686 21.9851 32.9384C22.1874 32.8617 21.7819 33.9313 21.4624 34.263C21.2493 34.4841 21.1914 35.4475 21.3639 35.6838C21.411 35.7409 21.2975 35.7951 21.1446 35.8084C20.919 35.8364 20.8858 35.892 21.0119 36.031C21.1936 36.2031 20.8522 37.2819 20.5765 37.4135C20.4954 37.4522 20.5651 37.5981 20.6989 37.7533C20.8883 37.9416 20.8861 38.0622 20.7077 38.1473C20.5617 38.2169 20.5024 38.3846 20.572 38.5306C20.6494 38.6928 20.5831 38.8041 20.4301 38.8173C20.2532 38.8221 20.1699 38.9813 20.1901 39.1907C20.2686 39.7306 19.9435 39.9256 18.7678 40.0486C17.229 40.2454 16.5707 40.2011 15.8922 39.9475C15.573 39.821 15.2608 39.751 15.1797 39.7897C15.0987 39.8284 14.9796 39.7458 14.9177 39.6161C14.8481 39.4701 14.5304 39.2633 14.2189 39.1531C13.8117 39.009 13.5983 38.8121 13.5154 38.5132C13.4395 38.2707 13.2987 38.0591 13.1782 38.0569C13.0499 38.0385 12.964 37.9003 12.9839 37.6916C12.9799 37.4746 12.8166 37.1742 12.5329 36.8715C12.1385 36.4624 12.1005 36.3412 12.2447 35.9339C12.3634 35.5985 12.3417 35.4695 12.1725 35.4905C12.0033 35.5115 11.9654 35.3902 12.0291 34.9815C12.0668 34.6848 12.0262 34.2661 11.9581 34.0398C11.8659 33.805 11.8649 33.4272 11.9419 33.1714C12.0189 32.9156 12.0142 32.7387 11.9169 32.7852C11.8358 32.8239 11.7005 32.749 11.6386 32.6193C11.5689 32.4733 11.6276 32.3458 11.7643 32.3403C11.9173 32.327 11.9427 32.2552 11.8004 32.1239C11.6821 32.0012 11.7083 31.8892 11.8705 31.8118C12.0164 31.7421 12.1259 31.4709 12.0987 31.2051C12.0714 30.9394 12.1322 30.6913 12.2295 30.6449C12.3268 30.5985 12.3869 30.3906 12.3667 30.1812C12.3464 29.9719 12.6668 28.7239 13.0767 27.4133C13.4866 26.1027 13.7808 24.9668 13.7097 24.9012C13.6548 24.8278 13.7197 24.7969 13.8479 24.8153C13.9924 24.826 14.1236 24.6838 14.1513 24.4914C14.2029 24.3074 14.4226 23.7247 14.657 23.2147C14.9 22.6806 15.054 22.169 15.0076 22.0717C14.9774 21.9667 15.0275 21.8631 15.1565 21.8414C15.2778 21.8034 15.4591 21.5576 15.5686 21.2864C15.6696 21.0391 15.8587 20.8094 15.9707 20.8356C16.0913 20.8378 16.092 20.7977 15.973 20.7151C15.8617 20.6487 15.7087 20.662 15.6586 20.7656C15.5845 20.8607 15.5543 20.7556 15.5827 20.523C15.6033 20.2743 15.6951 20.0911 15.7755 20.0926C15.8473 20.118 16.0032 19.944 16.1035 19.7369C16.2038 19.5298 16.4577 19.2692 16.6686 19.1686C16.8794 19.068 16.9789 18.901 16.9015 18.7389C16.8396 18.6091 16.7438 18.5752 16.6697 18.6703C16.6118 18.7577 16.523 18.7801 16.4766 18.6828C16.345 18.4071 16.7427 18.1974 17.0611 18.3641C17.3479 18.506 17.3641 18.4982 17.2565 18.231C17.0553 17.8093 17.2735 17.307 17.8031 16.9149C18.0479 16.7184 18.2208 16.4966 18.1898 16.4317C18.1202 16.2857 18.6303 15.6441 19.0697 15.3548C19.1839 15.2604 19.2934 14.9892 19.3063 14.7242C19.3229 14.2583 19.8792 13.296 19.9953 13.5393C20.0262 13.6041 20.3244 13.5614 20.6403 13.4306C21.0774 13.2618 21.1754 13.1752 21.0254 13.0278C20.9149 12.9212 20.683 12.8527 20.5216 12.8899C20.3038 12.9341 20.3215 12.846 20.6086 12.5298C20.8139 12.2924 21.1877 12.0743 21.4217 12.0223C21.6558 11.9704 21.7778 11.8922 21.6904 11.8344C21.5397 11.7271 21.8202 10.8964 21.9956 10.9719C22.0436 10.9889 22.337 10.7692 22.6473 10.5017C23.3583 9.86372 23.4317 9.80881 23.8334 9.81621C24.2112 9.81513 24.8813 9.21661 24.5205 9.16978C24.376 9.15908 24.3719 8.94199 24.5161 8.53473C24.6433 8.17538 24.6484 7.89417 24.5286 7.85177C24.1693 7.7246 22.4687 8.41666 22.1237 8.82022ZM33.8189 19.2673C33.7934 19.3392 33.6552 19.4251 33.5185 19.4306C33.3655 19.4439 33.391 19.372 33.5693 19.2869C33.74 19.1855 33.8605 19.1877 33.8189 19.2673ZM32.7356 20.0431C32.8229 20.101 33.033 20.0405 33.1882 19.9068C33.3434 19.773 33.5048 19.7358 33.5435 19.8169C33.5822 19.8979 33.451 20.0402 33.2409 20.1006C33.0223 20.185 32.7149 20.2919 32.5528 20.3693C32.3829 20.4305 32.2631 20.3881 32.273 20.2838C32.3099 20.0272 32.5292 19.9027 32.7356 20.0431ZM31.6866 21.141C31.6844 21.2615 31.5369 21.4115 31.391 21.4812C31.14 21.5811 31.1322 21.5648 31.3607 21.3761C31.4912 21.2741 31.5668 21.0986 31.5204 21.0013C31.4739 20.904 31.4994 20.8321 31.579 20.8738C31.6508 20.8992 31.705 21.0128 31.6866 21.141ZM34.344 19.9923C34.4786 20.1073 34.6794 20.111 34.8176 20.0252C34.9806 19.9076 35.132 19.9747 35.3038 20.2511C35.4987 20.5762 35.488 20.7207 35.2348 20.9411C35.0472 21.0904 34.819 21.697 34.7199 22.2819C34.6284 22.8831 34.4319 23.5144 34.3 23.6968C34.168 23.8793 33.9984 24.3584 33.9346 24.7672C33.8709 25.1759 33.7684 25.5035 33.6958 25.5183C33.6232 25.533 33.4635 25.9079 33.3264 26.3715C33.1893 26.8352 32.9386 27.353 32.7348 27.51C32.5387 27.6832 32.4067 27.8656 32.4454 27.9467C32.4841 28.0278 32.2187 28.473 31.8807 28.933C31.5265 29.4007 31.1461 29.9804 31.0451 30.2277C30.9017 30.5948 29.6971 32.2846 29.4439 32.505C29.3952 32.5282 29.1405 32.829 28.8611 33.1614C28.574 33.4776 28.2869 33.7938 28.205 33.8727C28.1317 33.9276 27.9186 34.1487 27.7303 34.3382C27.5497 34.5438 27.034 35.0487 26.5685 35.4501C26.1107 35.8676 25.6853 36.2697 25.619 36.381C25.4045 36.6825 23.9552 37.6927 23.901 37.5792C23.7927 37.3521 25.7888 31.5214 26.2286 30.774C26.7679 29.8596 27.2235 28.6865 27.1306 28.4919C27.0842 28.3946 27.1413 28.3474 27.2618 28.3496C27.4944 28.378 27.9743 27.6313 27.7827 27.5635C27.7108 27.538 27.8343 27.3796 28.0543 27.2148C28.56 26.8142 28.8416 26.3613 28.6098 26.2927C28.5302 26.2511 28.3912 26.3771 28.3157 26.5525C28.2162 26.7195 28.0525 26.8772 27.9235 26.899C27.4724 26.955 28.4326 25.8795 28.9246 25.7841C29.1988 25.7329 29.3455 25.6231 29.2914 25.5095C29.2449 25.4122 29.3359 25.2692 29.5143 25.1841C29.6765 25.1067 29.8494 24.8848 29.901 24.7009C29.9526 24.517 30.0768 24.3184 30.1904 24.2642C30.5147 24.1094 30.6139 23.5245 30.308 23.551C30.1712 23.5565 30.3659 23.4637 30.7536 23.3583C31.4086 23.1453 31.417 23.1213 31.0584 22.954C30.6998 22.7866 30.6921 22.7704 31.1417 22.7948C31.4871 22.8092 31.6493 22.7318 31.8638 22.4303C32.012 22.2401 32.2011 22.0105 32.2667 21.9394C32.3562 21.8767 32.716 21.5458 33.0835 21.231C33.4509 20.9163 33.6655 20.6148 33.5619 20.5647C33.4661 20.5308 33.5556 20.4681 33.7897 20.4162C34.1126 20.3417 34.162 20.2783 34.012 20.1309C33.9014 20.0244 33.8874 19.9116 33.9847 19.8652C34.0658 19.8265 34.2335 19.8858 34.344 19.9923ZM33.2969 20.5518C33.3279 20.6166 33.2044 20.7751 33.0098 20.868C32.7333 21.0397 32.6854 21.0228 32.8259 20.8164C33.0249 20.4825 33.2118 20.3734 33.2969 20.5518ZM13.9349 43.231C13.9688 43.1351 14.1055 43.1296 14.2485 43.2206C14.6698 43.4776 14.7063 43.6792 14.3222 43.5837C14.0904 43.5151 14.0093 43.5538 14.0712 43.6836C14.1177 43.7809 14.0915 43.8929 13.9942 43.9393C13.9131 43.978 13.8265 43.88 13.8132 43.727C13.7937 43.4775 13.5611 43.4491 13.2353 43.6842C13.1704 43.7152 13.1078 43.6256 13.103 43.4487C13.0835 43.1992 13.1159 43.1837 13.4838 43.2869C13.6916 43.347 13.901 43.3268 13.9349 43.231ZM15.6159 44.0415C16.284 44.8576 16.2995 44.89 15.9077 44.7783C15.7238 44.7267 15.5893 44.6117 15.5985 44.5476C15.6077 44.4835 15.4275 44.231 15.2071 43.9777C14.9945 43.7407 14.8862 43.5137 14.9672 43.475C15.0321 43.444 15.3328 43.6988 15.6159 44.0415ZM17.4864 44.1644C17.6179 44.4401 17.5988 44.6085 17.4041 44.7014C17.1933 44.802 17.1454 44.785 17.2611 44.6103C17.336 44.4751 17.2995 44.2735 17.165 44.1585C17.0389 44.0195 17.0172 43.8905 17.1145 43.8441C17.2118 43.7976 17.378 43.9373 17.4864 44.1644ZM26.9132 39.427C26.9751 39.5567 26.9243 39.7005 26.7945 39.7624C26.5675 39.8707 26.4414 39.7318 26.5424 39.4845C26.6195 39.2287 26.8049 39.1999 26.9132 39.427ZM17.9629 44.0365C17.9917 44.2219 18.1092 44.3848 18.2135 44.3948C18.3101 44.3885 18.3016 44.4125 18.1804 44.4504C17.9139 44.5179 17.5 43.8592 17.7433 43.7431C17.8244 43.7044 17.9265 43.8349 17.9629 44.0365ZM19.7727 43.5313C19.8423 43.6773 19.8047 43.974 19.6727 44.1564C19.5069 44.4347 19.3933 44.4888 19.1221 44.3794C18.9304 44.3115 18.7535 44.3163 18.7365 44.3642C18.7111 44.4361 18.64 44.3705 18.5781 44.2407C18.5084 44.0948 18.6242 43.9201 18.8512 43.8117C19.1107 43.6879 19.2389 43.7064 19.2198 43.8748C19.2091 44.0193 19.2909 43.9404 19.3757 43.7008C19.5862 43.1823 19.6024 43.1745 19.7727 43.5313ZM43.9484 36.614C43.9871 36.6951 43.9446 36.8149 43.8473 36.8613C43.7662 36.9 43.6951 36.8344 43.7051 36.7301C43.7073 36.6096 43.7574 36.506 43.8061 36.4828C43.8385 36.4673 43.9019 36.5167 43.9484 36.614ZM43.2517 37.7827C43.2649 37.9356 43.1931 37.9102 43.1079 37.7318C43.0066 37.5612 43.0088 37.4406 43.0884 37.4823C43.1603 37.5077 43.2462 37.6459 43.2517 37.7827ZM42.1824 44.3458C41.8584 44.9185 41.5927 44.9458 41.8525 44.3638C41.9782 44.0848 42.1589 43.8791 42.2385 43.9208C42.3103 43.9462 42.2827 44.1386 42.1824 44.3458ZM38.8171 49.0179C38.9044 49.0758 38.8783 49.1878 38.7323 49.2575C38.5864 49.3271 38.4828 49.277 38.4927 49.1727C38.495 49.0522 38.5451 48.9486 38.5775 48.9331C38.61 48.9176 38.722 48.9438 38.8171 49.0179ZM31.9835 53.4735C32.0709 53.5314 32.0771 53.628 31.996 53.6666C31.8987 53.7131 31.779 53.6707 31.7403 53.5896C31.6938 53.4923 31.6953 53.412 31.7277 53.3965C31.7764 53.3733 31.8884 53.3994 31.9835 53.4735ZM60.8276 58.4252C60.9149 58.483 60.9212 58.5796 60.8401 58.6183C60.7428 58.6647 60.623 58.6223 60.5843 58.5413C60.5379 58.444 60.5393 58.3636 60.5718 58.3481C60.6204 58.3249 60.7325 58.3511 60.8276 58.4252ZM60.0981 59.1914C60.1678 59.3374 59.7579 59.7719 59.5902 59.7125C59.5183 59.6871 59.5515 59.6314 59.665 59.5773C59.7785 59.5231 59.7962 59.435 59.7166 59.3933C59.6293 59.3355 59.6632 59.2396 59.7929 59.1777C59.9227 59.1158 60.0672 59.1265 60.0981 59.1914ZM58.2378 61.1344C58.3229 61.3128 58.0458 61.5247 57.8788 61.4252C57.7915 61.3673 57.8176 61.2553 57.9474 61.1933C58.0933 61.1237 58.2223 61.1019 58.2378 61.1344ZM53.7263 64.3226C53.7009 64.3945 53.5626 64.4803 53.4259 64.4859C53.2729 64.4991 53.2984 64.4273 53.4768 64.3421C53.6474 64.2408 53.768 64.243 53.7263 64.3226ZM48.9111 68.2929C48.9498 68.374 48.956 68.4706 48.9236 68.4861C48.8749 68.5093 48.7551 68.4669 48.6678 68.409C48.5727 68.3349 48.5742 68.2546 48.6553 68.2159C48.7526 68.1694 48.8646 68.1956 48.9111 68.2929ZM53.2087 66.2421C53.1988 66.3464 53.1239 66.4817 53.0266 66.5281C52.9455 66.5668 52.842 66.5166 52.8033 66.4356C52.7568 66.3383 52.8394 66.2192 52.9854 66.1496C53.1151 66.0877 53.2109 66.1216 53.2087 66.2421ZM43.1966 71.3384C43.212 71.3709 43.0491 71.4884 42.8221 71.5968C42.595 71.7051 42.3857 71.7254 42.347 71.6443C42.316 71.5794 42.479 71.4619 42.7292 71.4022C42.9717 71.3263 43.1811 71.306 43.1966 71.3384ZM46.7143 69.7394C46.8016 69.7973 46.743 69.9248 46.5484 70.0177C46.3538 70.1106 46.2178 70.0759 46.2278 69.9716C46.23 69.8511 46.3126 69.732 46.3936 69.6933C46.4747 69.6546 46.6192 69.6653 46.7143 69.7394ZM47.6442 69.4351C47.7293 69.6134 47.6962 69.6691 47.5856 69.5626C47.5067 69.4807 47.3622 69.4701 47.3121 69.5736C47.2542 69.661 47.1662 69.6433 47.1275 69.5622C47.081 69.4649 47.1559 69.3296 47.2856 69.2677C47.4154 69.2058 47.5908 69.2814 47.6442 69.4351ZM49.8387 68.9852C49.8774 69.0662 49.7222 69.2 49.4952 69.3084C49.2681 69.4167 49.0665 69.4532 49.0278 69.3721C48.9969 69.3072 49.1521 69.1735 49.3791 69.0651C49.6062 68.9568 49.8078 68.9203 49.8387 68.9852Z" fill="#171717"/>
<path fill-rule="evenodd" clip-rule="evenodd" d="M25.0482 41.2334C25.0946 41.3307 25.2299 41.4055 25.3342 41.4155C25.4547 41.4177 25.4886 41.3218 25.4267 41.1921C25.357 41.0461 25.238 40.9636 25.1407 41.01C25.0596 41.0487 25.0095 41.1523 25.0482 41.2334Z" fill="#171717"/>
<path fill-rule="evenodd" clip-rule="evenodd" d="M26.4264 40.9931C26.4165 41.0974 26.4876 41.163 26.5687 41.1243C26.666 41.0779 26.7084 40.9581 26.6697 40.877C26.6233 40.7797 26.5599 40.7303 26.5274 40.7458C26.4788 40.769 26.4286 40.8725 26.4264 40.9931Z" fill="#171717"/>
<path fill-rule="evenodd" clip-rule="evenodd" d="M48.3802 32.5483C48.4112 32.6132 48.507 32.6471 48.5881 32.6084C48.6854 32.562 48.7517 32.4507 48.7694 32.3626C48.7794 32.2583 48.6836 32.2243 48.5538 32.2863C48.4241 32.3482 48.3415 32.4672 48.3802 32.5483Z" fill="#171717"/>
<path fill-rule="evenodd" clip-rule="evenodd" d="M45.0356 41.6899C45.3245 41.7113 45.4543 41.6493 45.5221 41.4577C45.5899 41.266 45.4856 41.2561 45.145 41.4186C44.7311 41.636 44.7064 41.6677 45.0356 41.6899Z" fill="#171717"/>
<path d="M40.358 48.2826C40.4475 48.2399 40.4855 48.1326 40.4428 48.043C40.4 47.9535 40.2928 47.9155 40.2032 47.9583C40.1136 48.001 40.0757 48.1083 40.1184 48.1978C40.1611 48.2874 40.2684 48.3253 40.358 48.2826Z" fill="#171717"/>
</svg>
