<svg width="311" height="49" viewBox="0 0 311 49" fill="none" xmlns="http://www.w3.org/2000/svg">
<path d="M68.1992 34.6341C65.6718 34.6341 63.7196 34.0414 62.3426 32.8562C60.983 31.6535 60.3119 29.8581 60.3293 27.4701H64.5911C64.5737 28.4637 64.87 29.2219 65.4801 29.7448C66.0901 30.2677 66.9442 30.5292 68.0423 30.5292C68.9487 30.5292 69.6634 30.381 70.1863 30.0847C70.7092 29.7884 70.9707 29.3352 70.9707 28.7251C70.9707 28.2196 70.7005 27.8536 70.1602 27.627C69.6372 27.4004 69.1143 27.2435 68.5914 27.1564C68.0685 27.0518 67.746 26.9908 67.624 26.9733C66.2819 26.7119 65.1227 26.3981 64.1466 26.0321C63.1705 25.6486 62.3513 25.0734 61.6889 24.3065C61.0265 23.5395 60.6954 22.5286 60.6954 21.2736C60.6954 20.0186 61.0265 18.9553 61.6889 18.0838C62.3513 17.1948 63.2315 16.5324 64.3296 16.0967C65.4452 15.6609 66.6566 15.443 67.9639 15.443C69.5501 15.443 70.9184 15.7394 72.0688 16.332C73.2367 16.9246 74.1518 17.8223 74.8141 19.025C75.1453 19.6002 75.3457 20.158 75.4155 20.6983C75.4852 21.2213 75.5201 21.7355 75.5201 22.241H71.2583C71.2583 21.2997 71.0055 20.6112 70.5001 20.1754C69.9946 19.7222 69.2102 19.4956 68.1469 19.4956C67.2928 19.4956 66.6305 19.6438 66.1598 19.9401C65.6892 20.2364 65.4539 20.6373 65.4539 21.1428C65.4539 21.7006 65.7677 22.1102 66.3952 22.3717C67.0227 22.6331 67.8157 22.8685 68.7744 23.0776C70.3432 23.3914 71.5633 23.6964 72.4348 23.9927C73.3238 24.2716 74.0907 24.7771 74.7357 25.5092C75.3806 26.2413 75.7031 27.2697 75.7031 28.5944C75.7031 29.8494 75.3545 30.9301 74.6572 31.8365C73.96 32.7429 73.0362 33.4401 71.8858 33.9281C70.7528 34.3988 69.5239 34.6341 68.1992 34.6341ZM80.0756 15.966H81.043V27.2087C81.043 28.3591 81.3306 29.4223 81.9058 30.3985C82.481 31.3746 83.2566 32.1502 84.2327 32.7254C85.2089 33.3006 86.2721 33.5882 87.4225 33.5882C88.573 33.5882 89.6362 33.3006 90.6123 32.7254C91.5884 32.1502 92.3641 31.3746 92.9393 30.3985C93.5145 29.4223 93.8021 28.3591 93.8021 27.2087V15.966H94.7695V27.2087C94.7695 28.5334 94.4383 29.7622 93.776 30.8952C93.1136 32.0108 92.2159 32.8997 91.083 33.5621C89.9674 34.2245 88.7473 34.5556 87.4225 34.5556C86.0978 34.5556 84.869 34.2245 83.736 33.5621C82.6204 32.8997 81.7315 32.0108 81.0691 30.8952C80.4067 29.7622 80.0756 28.5334 80.0756 27.2087V15.966ZM100.345 15.966L106.803 25.6922L113.208 15.966H114.359L107.273 26.7119V34.1635H106.306V26.7119L99.1943 15.966H100.345ZM125.634 15.966H126.654L134.131 34.1635H133.085L130.628 28.1499H121.66L119.176 34.1635H118.156L125.634 15.966ZM122.052 27.2087H130.236L126.131 17.221L122.052 27.2087ZM145.877 25.4569C144.395 25.1606 143.184 24.8381 142.243 24.4895C141.319 24.1235 140.587 23.6354 140.046 23.0253C139.523 22.3978 139.262 21.596 139.262 20.6199C139.262 19.6089 139.523 18.72 140.046 17.953C140.587 17.1861 141.336 16.5935 142.295 16.1751C143.271 15.7568 144.395 15.5476 145.668 15.5476C146.888 15.5476 148.003 15.8091 149.014 16.332C150.043 16.8375 150.853 17.5521 151.446 18.476C152.039 19.3998 152.335 20.4543 152.335 21.6396H151.367C151.367 20.6112 151.115 19.7048 150.609 18.9204C150.104 18.1361 149.415 17.5347 148.544 17.1164C147.672 16.6806 146.705 16.4627 145.642 16.4627C144.7 16.4627 143.82 16.6109 143.001 16.9072C142.182 17.2035 141.511 17.6567 140.988 18.2668C140.482 18.8769 140.229 19.6438 140.229 20.5676C140.229 21.4043 140.473 22.0754 140.961 22.5808C141.449 23.0689 142.086 23.4437 142.87 23.7051C143.654 23.9666 144.753 24.2455 146.164 24.5418C147.594 24.8381 148.701 25.1257 149.485 25.4046C150.287 25.6661 150.958 26.1105 151.498 26.738C152.056 27.3655 152.335 28.2458 152.335 29.3788C152.335 30.5118 152.03 31.4704 151.42 32.2548C150.827 33.0218 150.034 33.597 149.041 33.9804C148.047 34.3639 146.966 34.5556 145.798 34.5556C144.352 34.5556 143.079 34.2855 141.981 33.7451C140.883 33.2048 140.038 32.4465 139.445 31.4704C138.87 30.4769 138.582 29.3439 138.582 28.0715H139.55C139.55 29.187 139.794 30.1631 140.282 30.9998C140.787 31.8365 141.511 32.4901 142.452 32.9607C143.393 33.4139 144.509 33.6405 145.798 33.6405C147.402 33.6405 148.727 33.2571 149.773 32.4901C150.836 31.7232 151.367 30.6773 151.367 29.3526C151.367 28.4462 151.141 27.749 150.688 27.261C150.235 26.7729 149.659 26.4243 148.962 26.2151C148.282 25.9885 147.254 25.7358 145.877 25.4569ZM157.832 34.1635V15.966H158.799V24.5679H170.878V15.966H171.846V34.1635H170.878V25.5353H158.799V34.1635H157.832ZM196.461 34.1373V15.9398H197.481L210.188 28.3068V15.9398H211.155V34.1373H196.461ZM216.626 15.966H229.437V16.9333H217.593V24.3065H227.895V25.2739H217.593V33.1961H229.437V34.1635H216.626V15.966ZM250.883 15.966L245.994 34.1635H244.974L242.255 24.045L239.536 34.1635H238.516L233.627 15.966H234.62L239.013 32.3594L241.758 22.1887L240.085 15.966H241.078L242.752 22.1887L245.497 32.3594L249.889 15.966H250.883ZM261.112 15.966H262.132L269.61 34.1635H268.564L266.106 28.1499H257.138L254.654 34.1635H253.634L261.112 15.966ZM257.53 27.2087H265.714L261.609 17.221L257.53 27.2087ZM284.911 16.5673C285.957 17.0554 286.776 17.7787 287.369 18.7374C287.979 19.6961 288.284 20.7594 288.284 21.9272C288.284 23.2868 287.865 24.5069 287.029 25.5876C286.21 26.6509 285.155 27.3568 283.865 27.7054L288.493 34.1635H287.343L282.872 27.8885L282.035 27.9146H275.472V34.1635H274.505V15.966H281.434C282.201 15.966 282.854 16.0182 283.395 16.1228C283.952 16.21 284.458 16.3581 284.911 16.5673ZM282.296 26.9472C283.203 26.9472 284.039 26.7206 284.806 26.2674C285.573 25.8142 286.183 25.2041 286.637 24.4372C287.09 23.6703 287.316 22.8336 287.316 21.9272C287.316 20.9162 287.046 20.0011 286.506 19.1819C285.983 18.3627 285.251 17.7526 284.31 17.3517C283.63 17.0728 282.671 16.9333 281.434 16.9333H275.472V26.9472H282.296ZM294.042 15.966H306.853V16.9333H295.009V24.3065H305.311V25.2739H295.009V33.1961H306.853V34.1635H294.042V15.966Z" fill="black"/>
<path d="M38.3816 30.1603L48.9474 24.3995L38.3776 18.6348L41.7259 7.14734L40.163 7.60219L30.2324 10.4976L24.4737 0L23.6902 1.42666L18.7189 10.4896L7.16939 7.08923L10.5657 18.6348L0 24.3955L10.5717 30.1603L7.22149 41.6497L18.7169 38.2975L24.4757 48.7951L30.2304 38.3035L41.782 41.7018L38.3856 30.1563L38.3816 30.1603ZM45.2144 24.3995L37.8647 28.407L36.6905 24.4156L37.8627 20.3921L45.2144 24.3995ZM36.2597 29.2827L31.8074 31.7112L29.3508 36.1875L24.4877 34.7569L19.5886 36.1855L17.134 31.7112L12.6837 29.2847L14.1123 24.3835L12.6817 19.5184L17.134 17.0899L19.5906 12.6135L24.4537 14.0442L29.3528 12.6156L31.8074 17.0899L36.2577 19.5164L34.829 24.4176L36.2597 29.2827ZM39.097 9.77424L36.7686 17.7592L33.1218 15.7694L31.1101 12.1006L39.097 9.77225V9.77424ZM24.4717 3.71694L28.4731 11.0126L24.4557 12.1827L20.4702 11.0106L24.4717 3.71694ZM9.80429 9.73217L17.8373 12.0966L15.8215 15.7714L12.1687 17.7632L9.80629 9.73217H9.80429ZM3.72893 24.3995L11.0787 20.3921L12.2529 24.3835L11.0787 28.407L3.72693 24.3975L3.72893 24.3995ZM9.84636 39.0248L12.1747 31.0379L15.8215 33.0277L17.8333 36.6965L9.84636 39.0248ZM24.4717 45.0822L20.4702 37.7865L24.4877 36.6163L28.4731 37.7885L24.4737 45.0822H24.4717ZM33.1218 33.0257L36.7767 31.0339L39.139 39.0649L31.1061 36.7005L33.1218 33.0257Z" fill="#F6C90E"/>
<path d="M24.4726 17.6769C20.7597 17.6769 17.748 20.6866 17.748 24.3995C17.748 28.1124 20.7577 31.1241 24.4726 31.1241C28.1875 31.1241 31.1972 28.1124 31.1972 24.3995C31.1972 20.6866 28.1875 17.6769 24.4726 17.6769Z" fill="#F6C90E"/>
</svg>
