<svg width="97" height="32" viewBox="0 0 97 32" fill="none" xmlns="http://www.w3.org/2000/svg">
<path d="M58.0076 15.6033C57.2292 14.367 56.7535 13.5407 56.2306 12.7609C55.078 11.0346 53.8893 9.31515 52.7694 7.56385C52.3143 6.84596 51.9212 6.06006 51.6218 5.27507C50.6823 2.70343 51.9707 0.530292 54.681 0.219298C55.7635 0.106423 56.902 0.188776 57.9528 0.400076C59.6262 0.735922 61.284 1.18695 62.905 1.73863C72.6634 5.02378 82.5894 7.71558 92.5867 10.0944C93.4105 10.2928 94.2558 10.5059 95.0349 10.8626C95.8966 11.2597 96.2501 12.0343 96.1514 12.9888C96.0794 13.7885 95.6952 14.4231 94.9609 14.6941C94.2954 14.9333 93.5293 15.1356 92.8414 15.061C91.6239 14.9563 90.4294 14.6788 89.235 14.4013C80.1879 12.1969 71.2078 9.7551 62.3987 6.73802C61.0366 6.26797 59.6942 5.60704 58.2471 5.77072C57.7503 6.50171 58.1313 7.02786 58.4659 7.50673C59.6512 9.20815 60.956 10.8493 62.0578 12.6041C62.7012 13.6229 63.2715 14.7491 63.5676 15.909C64.0762 17.8892 63.0903 19.6865 61.1316 20.2097C59.7439 20.5866 58.2323 20.7065 56.7911 20.6071C50.7316 20.1346 45.0037 18.4574 39.6289 15.5901C37.8995 14.6661 36.1848 13.7205 34.4115 12.861C32.5558 11.9612 30.6527 11.1078 28.5924 10.9018C27.9735 11.5813 28.4087 12.0971 28.7398 12.5579C30.35 14.721 32.04 16.8127 33.5848 19.0256C34.5602 20.4115 35.4987 21.898 36.1516 23.4577C37.4886 26.7395 35.822 30.0701 32.3896 30.9118C30.872 31.2948 29.2383 31.363 27.6673 31.2696C23.3438 30.9713 19.2489 29.7125 15.3061 27.9756C10.6916 25.955 6.43641 23.2671 2.3308 20.3823C1.83286 20.0281 1.36417 19.631 0.942741 19.1874C0.289099 18.5074 0.196857 17.5332 0.603419 16.8194C1.02804 16.1022 1.99444 15.6747 2.84578 16.0176C3.85878 16.4232 4.85293 16.926 5.81437 17.4538C8.1638 18.7835 10.4547 20.1991 12.8153 21.4893C17.2459 23.9192 21.9128 25.7239 26.9612 26.3892C28.5167 26.5978 30.1144 26.9294 31.6756 25.696C31.4545 25.0271 31.3494 24.2799 30.983 23.7322C29.8304 22.0058 28.5618 20.3578 27.3404 18.6633C26.0476 16.8888 24.7007 15.1246 23.4733 13.3003C22.9469 12.5024 22.4901 11.579 22.275 10.647C21.7982 8.73562 22.8391 6.83422 24.7255 6.32478C25.9903 5.99002 27.3936 5.89079 28.7049 5.99627C31.2914 6.21412 33.7129 7.13712 36.0245 8.2682C38.3326 9.38122 40.5926 10.6344 42.9042 11.7655C47.8575 14.1893 52.2095 15.3242 58.0076 15.6033Z" fill="black"/>
</svg>
