<svg width="84" height="84" viewBox="0 0 84 84" fill="none" xmlns="http://www.w3.org/2000/svg">
<path d="M81.7988 50.5463L55.0681 43.3626C52.4559 42.6605 51.9955 39.1496 54.3416 37.8001L78.3212 23.9792C79.3865 23.3652 79.7531 22.0011 79.1383 20.939C78.5243 19.8737 77.1602 19.5071 76.0949 20.1211L52.1153 33.942C49.7724 35.2923 46.9643 33.1372 47.6672 30.5217L54.8509 3.79108C55.1708 2.60077 54.4674 1.38037 53.2771 1.06048C52.0868 0.740586 50.8664 1.44397 50.5465 2.63429L43.3628 29.365C42.6607 31.9772 39.1497 32.4375 37.7993 30.0947L23.9784 6.11502C23.3644 5.04971 22.0004 4.68313 20.9351 5.29713C19.8698 5.91114 19.504 7.27202 20.118 8.33733L33.939 32.317C35.2893 34.6598 33.1341 37.4679 30.5219 36.7659L3.79126 29.5822C2.60416 29.2631 1.38049 29.9657 1.0606 31.156C0.740711 32.3464 1.44413 33.5668 2.63445 33.8866L29.3651 41.0704C31.9773 41.7724 32.4377 45.2835 30.0916 46.6329L6.11196 60.4539C5.04665 61.0679 4.68094 62.4287 5.29494 63.494C5.90894 64.5593 7.26975 64.925 8.33828 64.3119L32.3179 50.4909C34.6608 49.1406 37.469 51.2957 36.7669 53.908L29.5832 80.6387C29.2642 81.8258 29.9667 83.0494 31.157 83.3693C32.3473 83.6891 33.5686 82.9826 33.8876 81.7955L41.0714 55.0648C41.7734 52.4525 45.2844 51.9922 46.6348 54.3351L60.4557 78.3147C61.0697 79.38 62.4305 79.7457 63.499 79.1326C64.5643 78.5186 64.9309 77.1546 64.316 76.0925L50.4951 52.1128C49.1448 49.77 51.2999 46.9618 53.9122 47.6638L80.6428 54.8476C81.8299 55.1666 83.0536 54.4641 83.3735 53.2738C83.6933 52.0835 82.9899 50.863 81.7996 50.5431L81.7988 50.5463Z" fill="#F6C90E"/>
</svg>
