<svg width="213" height="213" viewBox="0 0 213 213" fill="none" xmlns="http://www.w3.org/2000/svg">
<path d="M207.431 100.922H138.259C137.319 100.922 136.461 100.731 135.662 100.448C136.278 99.865 136.994 99.3572 137.851 98.9826L201.337 71.5105C204.159 70.2868 205.458 67.0151 204.234 64.1929C203.018 61.3708 199.738 60.0721 196.916 61.2959L133.439 88.7679C132.973 88.9677 132.507 89.0343 132.041 89.1342C132.307 88.7429 132.54 88.3268 132.898 87.9688L181.807 39.0602C183.98 36.8874 183.98 33.3577 181.807 31.1932C179.634 29.0205 176.104 29.0205 173.931 31.1932L125.023 80.1018C124.357 80.7678 123.624 81.2424 122.85 81.6003C122.875 80.7512 123.017 79.8937 123.366 79.0112L148.832 14.7016C149.964 11.8462 148.566 8.60789 145.71 7.47571C142.855 6.34353 139.616 7.74212 138.484 10.6059L113.018 74.9238C112.835 75.3983 112.544 75.7646 112.286 76.1725C112.194 75.698 112.069 75.2485 112.069 74.7407V5.56929C112.069 2.48909 109.58 0 106.5 0C103.42 0 100.931 2.48909 100.931 5.56929V74.7407C100.931 75.6814 100.739 76.5387 100.456 77.3379C99.8818 76.7219 99.3656 76.006 98.991 75.1486L71.5189 11.6631C70.2952 8.84102 67.0235 7.54235 64.2014 8.76611C61.3792 9.98986 60.0806 13.2697 61.3043 16.0835L88.7764 79.5606C88.9762 80.0351 89.0428 80.4931 89.1427 80.9593C88.7515 80.6929 88.3352 80.4598 87.9772 80.1018L39.0686 31.1932C36.8958 29.0205 33.366 29.0205 31.2016 31.1932C29.0288 33.366 29.0288 36.8874 31.2016 39.0602L80.1102 87.9688C80.7761 88.6348 81.2507 89.3675 81.6087 90.1417C80.7595 90.1167 79.8938 89.9751 79.0197 89.6254L14.7101 64.1596C11.8546 63.0274 8.61623 64.426 7.48405 67.2898C6.35186 70.1452 7.75045 73.3837 10.6142 74.5159L74.9238 99.9732C75.3983 100.165 75.7729 100.448 76.1725 100.698C75.698 100.789 75.2485 100.922 74.7407 100.922H5.56939C2.49751 100.922 0 103.411 0 106.492C0 109.572 2.48919 112.061 5.56939 112.061H74.7407C75.6814 112.061 76.5388 112.244 77.3297 112.535C76.7136 113.118 75.9977 113.626 75.1402 114.001L11.6631 141.473C8.84101 142.696 7.54235 145.968 8.76611 148.79C9.98986 151.612 13.2616 152.911 16.0837 151.687L79.5691 124.215C80.0353 124.015 80.5015 123.957 80.9676 123.849C80.6929 124.249 80.4681 124.656 80.1102 125.023L31.2016 173.931C29.0288 176.104 29.0288 179.626 31.2016 181.807C33.3744 183.979 36.8958 183.979 39.0686 181.807L87.9772 132.898C88.6432 132.232 89.3841 131.758 90.15 131.4C90.125 132.24 89.9835 133.106 89.6339 133.98L64.1681 198.298C63.0359 201.154 64.4344 204.392 67.2982 205.524C70.1536 206.656 73.392 205.258 74.5242 202.394L99.9816 138.084C100.173 137.61 100.456 137.235 100.714 136.827C100.806 137.302 100.931 137.751 100.931 138.259V207.431C100.931 210.502 103.42 213 106.5 213C109.58 213 112.069 210.502 112.069 207.431V138.259C112.069 137.319 112.253 136.461 112.544 135.662C113.118 136.278 113.634 136.994 114.009 137.851L141.481 201.328C142.705 204.151 145.977 205.449 148.799 204.225C151.621 203.002 152.919 199.722 151.696 196.908L124.224 133.431C124.024 132.956 123.957 132.498 123.857 132.032C124.257 132.307 124.665 132.532 125.023 132.89L173.931 181.798C176.104 183.971 179.626 183.971 181.807 181.798C183.988 179.626 183.98 176.096 181.807 173.923L132.898 125.014C132.232 124.348 131.758 123.616 131.4 122.842C132.249 122.867 133.106 123.008 133.989 123.358L198.298 148.824C201.154 149.956 204.392 148.557 205.524 145.693C206.656 142.838 205.258 139.6 202.394 138.467L138.076 113.002C137.602 112.81 137.227 112.527 136.827 112.277C137.302 112.186 137.752 112.061 138.259 112.061H207.431C210.503 112.061 213 109.572 213 106.492C213 103.411 210.511 100.922 207.431 100.922Z" fill="#F6C90E"/>
</svg>
