<svg width="39" height="32" viewBox="0 0 39 32" fill="none" xmlns="http://www.w3.org/2000/svg">
<path fill-rule="evenodd" clip-rule="evenodd" d="M23.0462 7.09094C22.576 7.09094 22.1251 7.27771 21.7927 7.61016C21.4602 7.94261 21.2734 8.39351 21.2734 8.86367V23.0455C21.2734 23.5156 21.4602 23.9665 21.7927 24.299C22.1251 24.6314 22.576 24.8182 23.0462 24.8182H30.1371C30.6072 24.8182 31.0581 24.6314 31.3906 24.299C31.723 23.9665 31.9098 23.5156 31.9098 23.0455V8.86367C31.9098 8.39351 31.723 7.94261 31.3906 7.61016C31.0581 7.27771 30.6072 7.09094 30.1371 7.09094H23.0462ZM28.3643 10.6364H24.8189V21.2728H28.3643V10.6364Z" fill="black"/>
<path d="M8.86452 7.09094C8.39437 7.09094 7.94347 7.27771 7.61102 7.61016C7.27857 7.94261 7.0918 8.39351 7.0918 8.86367C7.0918 9.33383 7.27857 9.78473 7.61102 10.1172C7.94347 10.4496 8.39437 10.6364 8.86452 10.6364H15.9554C16.4256 10.6364 16.8765 10.4496 17.2089 10.1172C17.5414 9.78473 17.7282 9.33383 17.7282 8.86367C17.7282 8.39351 17.5414 7.94261 17.2089 7.61016C16.8765 7.27771 16.4256 7.09094 15.9554 7.09094H8.86452ZM8.86452 14.1819C8.39437 14.1819 7.94347 14.3686 7.61102 14.7011C7.27857 15.0335 7.0918 15.4844 7.0918 15.9546C7.0918 16.4247 7.27857 16.8756 7.61102 17.2081C7.94347 17.5405 8.39437 17.7273 8.86452 17.7273H15.9554C16.4256 17.7273 16.8765 17.5405 17.2089 17.2081C17.5414 16.8756 17.7282 16.4247 17.7282 15.9546C17.7282 15.4844 17.5414 15.0335 17.2089 14.7011C16.8765 14.3686 16.4256 14.1819 15.9554 14.1819H8.86452ZM7.0918 23.0455C7.0918 22.5753 7.27857 22.1244 7.61102 21.792C7.94347 21.4595 8.39437 21.2728 8.86452 21.2728H15.9554C16.4256 21.2728 16.8765 21.4595 17.2089 21.792C17.5414 22.1244 17.7282 22.5753 17.7282 23.0455C17.7282 23.5156 17.5414 23.9665 17.2089 24.299C16.8765 24.6314 16.4256 24.8182 15.9554 24.8182H8.86452C8.39437 24.8182 7.94347 24.6314 7.61102 24.299C7.27857 23.9665 7.0918 23.5156 7.0918 23.0455Z" fill="black"/>
<path fill-rule="evenodd" clip-rule="evenodd" d="M5.31818 0C3.90771 0 2.55501 0.560307 1.55766 1.55766C0.560307 2.55501 0 3.90771 0 5.31818V26.5909C0 28.0014 0.560307 29.3541 1.55766 30.3514C2.55501 31.3488 3.90771 31.9091 5.31818 31.9091H33.6818C35.0923 31.9091 36.445 31.3488 37.4423 30.3514C38.4397 29.3541 39 28.0014 39 26.5909V5.31818C39 3.90771 38.4397 2.55501 37.4423 1.55766C36.445 0.560307 35.0923 0 33.6818 0H5.31818ZM33.6818 3.54545H5.31818C4.84803 3.54545 4.39713 3.73222 4.06467 4.06467C3.73222 4.39713 3.54545 4.84803 3.54545 5.31818V26.5909C3.54545 27.0611 3.73222 27.512 4.06467 27.8444C4.39713 28.1769 4.84803 28.3636 5.31818 28.3636H33.6818C34.152 28.3636 34.6029 28.1769 34.9353 27.8444C35.2678 27.512 35.4545 27.0611 35.4545 26.5909V5.31818C35.4545 4.84803 35.2678 4.39713 34.9353 4.06467C34.6029 3.73222 34.152 3.54545 33.6818 3.54545Z" fill="black"/>
</svg>
