<svg width="37" height="37" viewBox="0 0 37 37" fill="none" xmlns="http://www.w3.org/2000/svg">
<path d="M23.8964 13.875L24.1616 14.1401C26.2166 16.1952 27.2449 17.2235 27.2449 18.5C27.2449 19.7765 26.2166 20.8048 24.1616 22.8598L23.8964 23.125M20.4955 11.0537L18.5006 18.5L16.5057 25.9462M13.1048 13.875L12.8411 14.1401C10.7846 16.1952 9.75781 17.2235 9.75781 18.5C9.75781 19.7765 10.7846 20.8048 12.8411 22.8598L13.1048 23.125" stroke="black" stroke-width="2.3125" stroke-linecap="round"/>
<path d="M3.08398 18.4999C3.08398 11.2325 3.08398 7.59879 5.34098 5.34025C7.60107 3.08325 11.2332 3.08325 18.5007 3.08325C25.7681 3.08325 29.4018 3.08325 31.6588 5.34025C33.9173 7.60034 33.9173 11.2325 33.9173 18.4999C33.9173 25.7673 33.9173 29.401 31.6588 31.658C29.4033 33.9166 25.7681 33.9166 18.5007 33.9166C11.2332 33.9166 7.59953 33.9166 5.34098 31.658C3.08398 29.4026 3.08398 25.7673 3.08398 18.4999Z" stroke="black" stroke-width="2.3125"/>
</svg>
